<?xml version="1.0" encoding="utf-8"?>
<!-- Generator: Adobe Illustrator 27.6.1, SVG Export Plug-In . SVG Version: 6.00 Build 0)  -->
<svg version="1.1" id="Calque_1" xmlns="http://www.w3.org/2000/svg" xmlns:xlink="http://www.w3.org/1999/xlink" x="0px" y="0px"
	 viewBox="0 0 1600 1600" style="enable-background:new 0 0 1600 1600;" xml:space="preserve">
<g>
	<path d="M1317.5,154.4H281.8c-81.7,0-148,66.2-148,148V1338c0,81.7,66.2,148,148,148h1035.7c81.7,0,148-66.2,148-148V302.3
		C1465.4,220.6,1399.2,154.4,1317.5,154.4z M536.5,1301H337.9V659.9h198.6V1301z M436.2,575.9c-64.9,0-117.4-53-117.4-118.3
		s52.6-118.3,117.4-118.3s117.4,53,117.4,118.3S501.1,575.9,436.2,575.9z M1280.5,1301h-197.6V964.5c0-92.3-35.1-143.8-108.1-143.8
		c-79.5,0-121,53.7-121,143.8V1301H663.4V659.9h190.4v86.4c0,0,57.3-105.9,193.3-105.9c136,0,233.3,83,233.3,254.8V1301z"/>
</g>
</svg>
